<?xml version="1.0" encoding="utf-8"?>
<!-- Generator: Adobe Illustrator 23.0.2, SVG Export Plug-In . SVG Version: 6.00 Build 0)  -->
<svg version="1.1" id="Calque_1" xmlns="http://www.w3.org/2000/svg" xmlns:xlink="http://www.w3.org/1999/xlink" x="0px" y="0px"
	 viewBox="0 0 1275.59 448.09" style="enable-background:new 0 0 1275.59 448.09;" xml:space="preserve">
<style type="text/css">
	.st0{fill:#FFFFFF;}
	.st1{fill:#616160;}
	.st2{fill:none;}
	.st3{fill:#312783;}
	.st4{fill:none;stroke:#000000;stroke-miterlimit:10;}
	.st5{font-family:'FjallaOne-Regular';}
	.st6{font-size:289.0764px;}
	.st7{font-size:40px;}
</style>
<path class="st0" d="M241.4,414.29c-20.34,0-37.17-15.9-38.31-36.19l-0.3-5.28h103.43l-0.03-1.19l5.12-0.01
	c15.99-0.02,29-13.04,29-29.03v-17.12c-0.12-15.64-12.46-28.54-28.1-29.33c-0.51-0.03-1.01-0.04-1.53-0.04h-0.28
	c-0.43,0.01-0.81,0.02-1.19,0.04l-0.16,0.01h-66.38c-0.72,0-1.43-0.02-2.14-0.06c-19.54-1.1-35.08-16.63-36.17-36.12
	c-0.04-0.75-0.06-1.46-0.06-2.18V162.6l0.19-0.67c4.03-14.27,16.06-25.18,30.65-27.79c1.81-0.32,3.67-0.52,5.54-0.58l142.53,0
	l-0.21,5.2c-0.8,20.34-17.92,36.27-38.98,36.27h-69.31c-14.45,0-26.92,10.76-29,25.03c-0.21,1.39-0.32,2.83-0.32,4.29
	c0,0.66,0.02,1.25,0.06,1.8c0.05,0.86,0.14,1.68,0.26,2.47l0.05,0.37v11.39l-0.06,0.37c-0.19,1.24-0.29,2.52-0.31,3.82l-0.01,0.24
	l0,0.21c0,1.47,0.11,2.9,0.31,4.27c2.09,14.3,14.56,25.05,29.01,25.05c0.39,0,0.77-0.01,1.15-0.02l5.55-0.14l-0.04,0.52h74.86
	l0.8,0.28c11.94,4.19,21.11,13.96,24.54,26.12l0.19,0.67V385.7l-0.19,0.67c-4.55,16.11-19.4,27.58-36.13,27.91
	c-0.26,0.01-0.52,0.01-0.78,0.01H241.4z"/>
<path class="st1" d="M381.77,280.45v102.56c-3.9,13.82-16.48,24-31.47,24.27c-0.21,0.01-0.42,0.01-0.63,0.01H246.4
	c-17.79,0-32.33-13.93-33.32-31.47h103.27c-0.02-0.4-0.03-0.8-0.04-1.2c18.77-0.02,33.99-15.25,33.99-34.03v-17.12
	c-0.14-18.4-14.64-33.4-32.85-34.32c-0.59-0.03-1.18-0.05-1.78-0.05h-0.33c-0.49,0.01-0.97,0.02-1.45,0.05h-66.22
	c-0.64,0-1.27-0.02-1.9-0.05c-16.92-0.95-30.47-14.5-31.42-31.41c-0.03-0.63-0.05-1.26-0.05-1.9v-94.5
	c3.5-12.4,13.86-21.93,26.72-24.23c1.58-0.28,3.19-0.45,4.84-0.51h137.15c-0.69,17.49-15.64,31.47-33.98,31.47h-69.31
	c-17.26,0-31.53,12.73-33.95,29.31c-0.25,1.64-0.37,3.31-0.37,5.01c0,0.72,0.02,1.44,0.07,2.15c0.06,0.97,0.16,1.92,0.3,2.86V218
	c-0.22,1.47-0.34,2.97-0.36,4.5c-0.01,0.17-0.01,0.34-0.01,0.51c0,1.71,0.12,3.38,0.37,5.02c2.42,16.57,16.7,29.3,33.95,29.3
	c0.43,0,0.86-0.01,1.28-0.02c-0.01,0.13-0.01,0.25-0.02,0.38h79.41C370.73,261.32,378.78,269.82,381.77,280.45z"/>
<polygon class="st0" points="211.72,212.04 207.04,212.04 207.04,207.39 202.04,207.39 202.04,202.1 211.72,202.04 211.72,207.04
	212.04,207.04 212.04,207.39 211.72,207.39 "/>
<polyline class="st2" points="207.04,207.39 207.04,207.1 207.04,207.06 207.04,207.04 209.38,207.04 211.72,207.04 "/>
<path class="st0" d="M343.04,416.04c-21.5,0-39-17.5-39-39v-94.53l0.15-0.59c0.57-2.29,0.85-4.65,0.85-7.01
	c0-13.67-9.61-25.53-22.92-28.36l-67.03-0.51c-1.59,0-2.95,0.02-4.28,0.03c-1.29,0.01-2.55,0.03-3.96,0.03c-2.55,0-5.09,0.34-7.55,1
	c-12.52,3.39-21.26,14.82-21.26,27.81v102.13c0,21.5-17.5,39-39,39h-5v-5c0-15.99-13.01-29-29-29v-10c15.99,0,29-13.01,29-29v-238
	c0-15.99-13.01-29-29-29v-10c15.99,0,29-13.01,29-29v-5h5c21.5,0,39,17.5,39,39v102.54c0,14.3,10.6,26.51,24.7,28.52h4.3l63.43-0.06
	c0.24,0,0.97,0.01,0.97,0.01l0.28,0.04c0.2,0.03,0.45,0.04,0.76,0.04c0.4,0,0.81-0.02,1.21-0.04c0.55-0.02,1.11-0.04,1.66-0.04
	c0.77,0,1.51-0.03,2.18-0.08l0.22-0.02c0.24-0.02,0.49-0.04,0.73-0.07l0.19-0.02c0.16-0.01,0.32-0.04,0.48-0.06l0.31-0.05
	c13.27-1.91,23.59-12.97,24.59-26.31c0.07-0.72,0.1-1.42,0.1-2.21c0-0.75-0.03-1.51-0.09-2.33l-0.02-0.19V71.04
	c0-21.5,17.5-39,39-39h5v5c0,15.99,13.01,29,29,29v10c-15.99,0-29,13.01-29,29v238c0,15.99,13.01,29,29,29h5v9.69l-4.68,0.37
	c-15.18,0.97-27.09,13.65-27.13,28.88l-0.01,4.66l-4.65,0.32C344.77,416.01,343.95,416.04,343.04,416.04z"/>
<path class="st3" d="M377.04,377.04v0.07c-17.74,1.13-31.77,15.86-31.81,33.86c-0.72,0.05-1.45,0.07-2.19,0.07
	c-18.77,0-34-15.22-34-34c0-9.16,0-18.33,0-27.49c0-16,0-32,0-48c0-5.18,0.02-10.36,0-15.53c-0.02-5.4,1.12-10.66,0.33-16.07
	c-0.8-5.46-2.93-10.73-6.23-15.15c-3.51-4.68-8.3-8.37-13.68-10.66c-6-2.55-12-2.57-18.4-2.67c-9.75-0.15-19.5-0.15-29.24-0.22
	c-8.89-0.07-17.79-0.13-26.68-0.2c-3.2,0-5.42,0.06-8.28,0.06c-3.06,0-6.03,0.41-8.85,1.17c-14.38,3.89-24.96,17.02-24.96,32.64
	v102.13c0,18.78-15.22,34-34,34c0-18.77-15.22-34-34-34c18.78,0,34-15.22,34-34v-238c0-18.77-15.22-34-34-34c18.78,0,34-15.22,34-34
	c18.78,0,34,15.23,34,34v102.54c0,17.16,12.79,31.34,29.36,33.52h4.64l62.18-0.06c0.57,0,1.29-0.01,1.85,0c1.39,0.18,2.83,0,4.28,0
	c0.86,0,1.74-0.03,2.6-0.1c0.39-0.03,0.78-0.06,1.17-0.11c0.23-0.02,0.46-0.05,0.69-0.08c0.14-0.02,0.27-0.04,0.4-0.06
	c15.53-2.23,27.65-15.03,28.83-30.88c0.08-0.85,0.11-1.71,0.11-2.58c0-0.92-0.04-1.82-0.11-2.72V71.04c0-18.77,15.23-34,34-34
	c0,18.78,15.23,34,34,34c-18.77,0-34,15.23-34,34v238C343.04,361.82,358.27,377.04,377.04,377.04z"/>
<rect x="343.04" y="236.04" class="st0" width="0.29" height="10"/>
<line class="st4" x1="343.33" y1="241.04" x2="343.04" y2="241.04"/>
<polygon class="st0" points="139.04,212.64 139.03,212.64 139.03,202.64 "/>
<line class="st4" x1="139.04" y1="207.64" x2="139.03" y2="207.64"/>
<text transform="matrix(1.0434 0 0 1 450.4014 311.9033)" class="st1 st5 st6">HSMA</text>
<text transform="matrix(1 0 0 1 470.8188 377.3701)" class="st3 st5 st7">the way it is meant to manage your salon</text>
</svg>
